<?xml version="1.0" encoding="UTF-8"?>
<svg id="Ebene_1" xmlns="http://www.w3.org/2000/svg" version="1.1" viewBox="0 0 425.76 477.84">
  <!-- Generator: Adobe Illustrator 29.2.0, SVG Export Plug-In . SVG Version: 2.1.0 Build 108)  -->
  <defs>
    <style>
      .st0 {
        fill: #b4b4b4;
      }

      .st1 {
        fill: #9c9c9c;
      }

      .st2 {
        fill: #b5b5b5;
      }
    </style>
  </defs>
  <path class="st1" d="M166.26,86.84c.65,1.04,2.37.63,3.43.64,4.73.05,10.2.46,14.71-.64h58.19c.65,1.04,2.37.63,3.43.64,4.73.05,10.2.46,14.71-.64h7.51l24.64,1.95c39.19,4.81,68.21,28.57,77.05,67.49l3.43,22.53c-2.11,44.48,2.82,91.6,0,135.78-3.76,58.96-37.5,88.56-95.4,92.01-36.68,2.18-77.67,1.15-114.51-.05-32.61-1.06-61.43-2.67-85.13-28.12-21.4-22.98-23.01-48.75-24.06-78.56-1.22-34.81-1.22-70.26,0-105.07.88-25.26,1.63-47.68,16.36-69.37,20.68-30.46,53.5-37.22,88.11-38.6h7.51ZM157.38,116.44c-52.21,2.02-72.31,19.59-74.36,72.69-1.5,39.08-1.36,80.58.65,119.55,2.07,40.3,15.49,64.2,58.52,68.5,37.04,3.71,83.19,1.86,120.73.61,25.22-.84,48.8-.06,66.68-20.92,15.6-18.2,14.27-40.76,14.98-63.24,1.09-35.01,2.06-73.33.02-108.22-2.94-50.31-22.75-66.21-71.67-68.5-36.95-1.73-78.51-1.9-115.55-.47Z"/>
  <path class="st0" d="M184.41,86.84c-4.52,1.1-9.98.69-14.71.64-1.06-.01-2.78.4-3.43-.64h18.15Z"/>
  <path class="st2" d="M260.75,86.84c-4.52,1.1-9.98.69-14.71.64-1.06-.01-2.78.4-3.43-.64h18.15Z"/>
  <path class="st1" d="M204.31,165.24c82.02-7.48,124.29,92.05,62.37,144.97-49.61,42.41-128.01,10.35-134.82-54.12-4.62-43.79,27.79-86.78,72.45-90.85ZM207.43,194.03c-37,3.59-57.98,45.3-40.87,78.05,17.25,33,63.87,38.26,87.91,9.67,31.35-37.29,1.56-92.43-47.04-87.71Z"/>
  <path class="st1" d="M295,142.68c27.55-4.65,31.58,34.56,7.2,37.86-25.76,3.49-29.38-34.11-7.2-37.86Z"/>
</svg>