<?xml version="1.0" encoding="UTF-8"?>
<svg id="Ebene_1" xmlns="http://www.w3.org/2000/svg" version="1.1" viewBox="0 0 425.76 477.84">
  <!-- Generator: Adobe Illustrator 29.2.0, SVG Export Plug-In . SVG Version: 2.1.0 Build 108)  -->
  <defs>
    <style>
      .st0 {
        fill: #9c9c9c;
      }
    </style>
  </defs>
  <path class="st0" d="M405,269.91v160.19h-79.5s.03-139.63.03-139.63c-1.51-29.79-10.08-54.37-44.69-52.78-34.31,1.58-43.07,27.26-44.62,57.27l.03,135.14h-79.5V174.1h76.5v35.18c1.77.36,1.21-.22,1.68-.96,20.65-32.2,49.22-42.58,87.22-40.24,60.82,3.76,79.87,47.39,82.84,101.83Z"/>
  <path class="st0" d="M72.75,46.84c15.23,2.53,29.12,11.94,35.91,25.92,18.3,37.65-19.62,78.82-58.8,63.18-15.39-6.14-25.13-20.22-28.86-35.95v-14.97c1.78-2.91,2.05-6.52,3.39-9.72,4.57-10.93,13.9-19.92,24.6-24.85l12.51-3.61h11.25Z"/>
  <polygon class="st0" points="107.25 430.1 27 430.1 27 175.22 28.12 174.1 106.12 174.1 107.25 175.22 107.25 430.1"/>
</svg>