<?xml version="1.0" encoding="UTF-8"?>
<svg id="Ebene_1" xmlns="http://www.w3.org/2000/svg" version="1.1" viewBox="0 0 425.76 477.84">
  <!-- Generator: Adobe Illustrator 29.2.0, SVG Export Plug-In . SVG Version: 2.1.0 Build 108)  -->
  <defs>
    <style>
      .st0 {
        fill: #959897;
      }

      .st1 {
        fill: #e2efed;
      }

      .st2 {
        fill: #090a0a;
      }

      .st3 {
        fill: #080808;
      }

      .st4 {
        fill: #0c0c0c;
      }

      .st5 {
        fill: #070808;
      }

      .st6 {
        fill: #e3f0ee;
      }

      .st7 {
        fill: #1e1e1e;
      }

      .st8 {
        fill: #e7f2f0;
      }

      .st9 {
        fill: #f4f8f8;
      }

      .st10 {
        fill: #090909;
      }

      .st11 {
        fill: #050505;
      }

      .st12 {
        fill: #303030;
      }

      .st13 {
        fill: #e6f4f1;
      }

      .st14 {
        fill: #e7f3f1;
      }

      .st15 {
        fill: #f1f7f6;
      }

      .st16 {
        fill: #e6f2f0;
      }

      .st17 {
        fill: #282828;
      }

      .st18 {
        fill: #edf5f3;
      }

      .st19 {
        fill: #202020;
      }

      .st20 {
        fill: #131414;
      }

      .st21 {
        fill: #2b2e2e;
      }

      .st22 {
        fill: #e6f1f0;
      }

      .st23 {
        fill: #e3efed;
      }

      .st24 {
        fill: #1d1d1d;
      }

      .st25 {
        fill: #999;
      }

      .st26 {
        fill: #232323;
      }

      .st27 {
        fill: #f0f7f6;
      }

      .st28 {
        fill: #696969;
      }

      .st29 {
        fill: #040404;
      }

      .st30 {
        fill: #ebf4f3;
      }

      .st31 {
        fill: #edf5f4;
      }

      .st32 {
        fill: #d7eae7;
      }

      .st33 {
        fill: #d6eae7;
      }

      .st34 {
        fill: #6d7372;
      }

      .st35 {
        fill: #e2f0ee;
      }
    </style>
  </defs>
  <path d="M213.69,144.6c66.69-2.38,131.07,56.94,101.89,125.48-33.77,79.3-162.98,78.96-196.36-.63-27.44-65.42,30.83-122.58,94.47-124.85Z"/>
  <path class="st24" d="M374.31,228.18c.5.14.79,1.27,1,1.39.83.47,1.92-.55,2.42,1.45.3,1.2-.45,2.35,1.17,2.88l16.06.17.54.74c-1.99.66-16.58-.29-17.31.39-.17.16-.24,3.03-.57,3.67s-1.78.88-1.89,2.23c-12.3.69-24.68.19-37.01.35-.29,1.18.68.49,1.01.81.21.21.16.87.45,1.22.58.68,1.61,1.35,2.01,2.06,1.34,2.39.36,5.15-1.8,6.62-.47.32-3.55,1.81-4.08,1.85-3.58.31-7.61-1.12-11.23-1.13.05-3.37.94-6.77,1.12-10.12.99-18.31-3.55-36.27-13.13-51.78-1.14-1.85-5.99-7.94-6.35-9.15-.08-.28-.12-.55-.07-.84,1.73-1.01,1.65.69,2.08.76.92.16,2.74-1.17,3.62-.41.22.19,2.94,4.75,3.06,5.07.39,1.1.3,2.65.1,3.78l15-6.96c1.1-.11,1.27,2.6,2.2,2.87.83.24,2.36-1.06,3.41-.67,1.18,3.12,2.53,6.19,3.82,9.27.26.62.91,1.02,1.21,1.74.74,1.83.81,4.3.9,6.25l-14.36,4.08c1.28-.29,4.43,1.02,5.17,2.02,1.1,1.49,1.44,7.14,1.81,7.41.58.43,2.52-.36,3.54-.25.7.07.5.76.77.79.64.07,1.5-.54,2.5-.39.39.06,2.14,1.06,2.44,1.37.4.41,2.89,4.32,2.93,4.73.15,1.5-2.39,3.99-2.22,5.69h29.68Z"/>
  <path class="st24" d="M127.5,291.58"/>
  <path class="st24" d="M256.5,147.07l-11.38-3.49,4.03-12.36c2.36.95,1.62-1.94,4.27-2.21,1.5-.15,6.7,3.35,7.04,5.03.03.14.08,2.66.06,2.8-.27,1.63-2.63,5.42-3.34,7.41-.29.8-.12,1.94-.67,2.81Z"/>
  <path class="st7" d="M284.54,154.08c.29.75-1.1,1.4-1.1,1.66,0,.14,1.39,1.39,1.71,1.61.97.69,1.54-.11.87,1.52l1.47-.36c-.55.86.24,2.79.9,3.36.54.47,1.14-.1,1.67.13.7.3,1.91,2.3,2.58,2.56.45.17,1.01-.36,1.7.17.76.59.07,2.27.54,2.61.11.08,1.63-.36,2.45.49.22.23.21.82.48,1.16,1.08,1.35,3.29,3.01,1.29,4.25-8.52-8.15-18.09-15.48-28.94-20.27-.33-.46,5.36-7.75,5.89-9.04.79-.61,1.4.57,2.04.58s2.3-2.59,3.33.71c1.18,3.76-3.37,6.84-3.15,7.94.34,1.72,2.25-.53,2.4-.54.98-.06-.28,1.74-.14,2.31.58,2.32,3.14.08,4-.85Z"/>
  <path class="st7" d="M314.34,167.05c.11.07.75,1.69.79,2,.44,3.32-2.1,1.73-2.6,2.14-.35.29-.23,1.12-.41,1.27-.24.2-.95-.08-1.33.13-.2.11-.29.77-.63,1.02-1.36,1.04-4.49,3.52-5.84,4.16-1.58.75-2.83-2.4-3.94-3.23,2.48-.82,4.27-2.88,6.36-4.33,1.28-.89,2.89-1.79,4.21-2.61.26-.16.32-.84.7-.93.13-.03,2.56.31,2.68.38Z"/>
  <path class="st19" d="M266.04,144.2c.19.31-.07.95.14,1.31.19.33,1.37.33,1.39,1.37,0,.53-1.35,3.09-1.84,3.35-1.03.54-4.14-1.68-5.53-1.68-.16-.21,1.87-4.36,2.2-4.58.09-.06,1.87-.51,1.98-.5.17,0,1.61.66,1.66.74Z"/>
  <path class="st12" d="M234.13,140.71c.6.69,3.19.18,3.59,1.57-1.81-.54-7.32-.35-8.6-1.1-1.05-.61.66-1.76,1.43-1.84.47-.05.97.27,1.46.29.46.02,1.03-.38,1.43-.27.61.16.45,1.08.68,1.36Z"/>
  <path class="st17" d="M243.58,141.59c.16.22-.05.81.04,1.16.13.5.89.02.74.64l-5.53-.74c-.67-2.69,4.51-1.38,4.75-1.06Z"/>
  <path class="st25" d="M296.34,310.38c-.32.2-.41.35-.37.74-.19-.42-.97-.74-.74-1.47.62-.13.86.21,1.1.74Z"/>
  <path class="st13" d="M203.44,191.68c-1.27,6.2-.94,12.66-1.76,18.95,1,1.55,5.51,3.65,5.81,5.21l.2,29.66,4.6,2.58.74-63.22c-.38-.44-.69,1.34-1.47.55-.43-.43.77-6.92.37-8.11l7.22,10.68c.17,2.52-.82,7.04-.14,9.33.33,1.11,2.97,2.41,3.23,3.77.06,17.32-.21,34.64.44,51.91.16.48,7.74,4.64,8.05,4.3l.37-22.12c4.12,3.25,8.02,6.84,11.72,10.58l-.34,14.07-15.75,5.08-.78,25.94c-.18-.36-.34-.73-.46-1.12s-.22-.74-.22-1.11c.03-3.79.06-7.6.31-11.37-1.72-.37-2.34.77-1.86,3.41-.08.65-.43.81-1.09.6l-.73-.27.36-16.01-.7-.44c.03,8.37-.03,16.75-.21,25.12l-.57.44-.74-.58.26-8.82c.46-.26-.45-7.14-1-5.82v49.3c.14,1.16-.1,1.97-.74,2.41-.54.35-.74.15-.74-.46.07-21.8.02-43.18-.17-64.15l-.9-.27.69,24.61-.72.46-.77-.82c.01-1.73,0-10.54-1.21-11.43-.03-.02-.63.04-.63.07.27,2.09.03,4.06-.71,5.92-.72.58-1.02.16-1.13-.67.33.52.16-23.83-1.01-21.07l1.71,38.59-.67.48c-.63.3-.93.17-1.06-.49.91-2.75-1.89-10.25-1.89-3.66l-.74.46-.75-.21-2.16-37.9-.36-.2,1.41,28.24-.71.48c-.62.37-.91.21-1.05-.45l-.02-3.27c-2.27-.23-3.15,1.5-2.63,5.19l-.73.38c-.39-1.57-.61-3.71-.73-5.35-.31-4.16-.16-8.4-.76-12.51l-.36-27.11-2.57,1.1c.7-8.63.51-17.33.72-26,.05-2.11.69-4.34.38-6.63-.07-.51.2-.64-.55-.54l-12.36,7.63-.36,31.26c-.28,1.51-6.93,3.37-8.08,4.85l1.07,15.23-19.87-9.4c-8.54,2.52-17.89,4.2-26.57,1.29,1.05,7.27,3.06,14.67,5.52,21.57,1.95,5.47,4.97,12.93,8.49,17.5.49.52.28.71-.37.37-26.49-23.2-35.71-60.16-22.12-92.9.47-.18.94-.19,1.41-.02,24.56-5.26,50.49-10.06,74.8-14.42,1.56-.75,2.95-.98,4.16-.68Z"/>
  <path class="st13" d="M314.03,262.46c-.6.07-.96-.32-1.08-1.18-1.62.18-3.2.56-4.76,1.12-2.01-.24-3.22.89-3.63,3.39l-.85.36c1.46-8.18,2.72-16.44,2.12-24.79-6.95-8.45-13.89-16.93-20.17-25.91-1.13-1-4.8-.33-6.42-.13-4.62.59-9.17,1.92-13.53,3.5.43,8.6,1.32,17.17,1.14,25.78-.02.87-.37,1.68-.4,2.55-.12,3.79-.19,7.59-.3,11.39.16.49,7.72,4.86,8.79,5.4l-.28.8-7.92,1.47c-.72,1.01-1.35,2.13-1.68,3.32l-.81.31c-.41-1.28.65-3.55.32-4.54-.23-.7-1.81-1.46-2.11-.38-.47,6.99-1.41,14.08-3.37,20.77l-.78-.27c-1.03-3.02-2.71,1.63-2.8,2.98l-.84.25c2.28-11.43,3.79-22.99,4.42-34.65l-14.74,5.16c-.41-5.11,1.09-10.31.02-15.32l-13.53-12.27-6.4,3.26c-.09-11.49-.59-22.94-.38-34.46-.28-1.45-3.68-3.89-3.97-4.88-.77-2.61.59-7.5-.44-10.43,1.22-.49,1.88,1.25,1.72,2.37,22.59-3.88,44.88-8.23,66.85-13.06,25.17,21.8,36.92,55.73,25.81,88.11Z"/>
  <path class="st31" d="M288.23,174.35c.04.87-.48,1.01-1.17,1.23-1.39.46-4.13.9-5.76,1.25-16.66,3.55-33.62,6.25-50.32,9.4-3.47.66-6.96,1.89-10.59,2.13.56-1.96.29-1.87-.74-3.32-2.43-3.41-4.95-6.78-7.19-10.32l-5.53,4.05-.91,11.17c-.8.65-1.64,1.29-2.59,1.73-5.73,2.69-17.38,3.55-24.06,4.88-16.92,3.36-33.86,6.86-50.87,9.96-1.47.27-4.38,1.92-5.44.28,26.44-63.66,114.97-75.91,165.15-32.44Z"/>
  <path class="st6" d="M274.96,263.94c4.38,2.22,9.2,4.04,13.97,5.19-1.53,11.16-5.92,22.49-11.2,32.42-1.49,2.81-4.83,9.11-6.83,11.23-.76.81-1.49,1.1-2.4,1.66l-.18-.54c7.63-10.96,15.36-25.53,17.61-38.81.16-.94.02-.95-1.04-1.03-2.46,8.64-5.03,17.28-8.89,25.41-1.61,3.4-8.1,15.49-11.01,16.83-.33.14-1.01.3-1.09-.08,3.55-5.33,6.86-10.84,9.94-16.51,1.14-3.46,1.26-4.32.37-2.58l-1.11,2.21c.29.65-.48,2.2-1.11,2.58-2.01,4.9-4.62,9.56-7.84,13.96.08.47-.15.59-.64.41-.76.95-1.1,1.24-2.31,1.56-.5.13-.71.68-.64-.27,6.57-9.13,11.76-19.4,15.21-30.14.65-2.01,4.16-14.35,3.53-15.34-.08-.13-1.29-.51-1.41-.43-2.28,13.39-6.74,26.49-13.58,38.22-1.15,1.96-5.4,9.15-7.26,9.7-.52.15-.65-.03-.54-.54,8.65-13.07,15.2-28.48,17.94-43.99.13-.71.84-4.03.78-4.27s-.76-.79-1.03-.95c-.59.47-.86.46-.81-.02-.26,1.36-.48,2.71-.66,4.07-.01.12.01.25,0,.37-.26.58-.38,1.19-.37,1.84-.64,4.21-1.42,7.03-2.58,11.06-.8-.75-1.12-.99-2.26-.55l-.69-.56c.8-3.08,1.64-6.83,2.21-9.95.27-.57.39-1.19.37-1.84.02-.12-.02-.25,0-.37l.37-2.21c0-.12,0-.25,0-.37.63-1.91,1.02-4.22-1.59-4.18l-.62,3.81c-.01.12.01.25,0,.37l-.74,4.79c-.42,3.72-.94,7.53-2.21,11.06-.63-1.01-1.45-1.12-2.46-.35l-.85-.39c.87-3.7,1.62-7.68,2.21-11.43.27-.57.39-1.19.37-1.84.02-.12-.01-.25,0-.37l.37-2.58c.01-.12-.02-.25,0-.37.26-1.8,1.16-2.63,1.83-4.26l8.86-1.64Z"/>
  <path class="st14" d="M181.32,289.37c1.31,3.17,2.04,8.23,3.13,11.8,1.46,4.76,3.29,9.7,5.28,14.26,1.27,2.91,2.8,5.72,4.12,8.6-.54.48-12.4-2.95-13.84-3.67-1.71-.85-3.25-3.97-4.28-5.67-4.62-7.63-8.13-15.78-11-24.21l-.11-1.53c3.33-1.73,7.09-2.68,11.28-2.84,3.78-1.58,4.42-.18,5.42,3.27Z"/>
  <path class="st13" d="M302.61,258.77c-.64-.62-1.05-1.59-1.22-2.89-.32-.57-6.94.85-8.32,1.18-1.7.4-3.43.76-5.15,1.09-.54,1.34-1.3,2.16-2.26,2.46,1.86-14.22,1.64-28.57-.36-42.76,6.1,8.18,11.85,16.64,18.72,24.22-.02,3.06-.05,6.47-.3,9.51-.19,2.35-.58,4.89-1.1,7.19Z"/>
  <path class="st35" d="M285.65,260.62c.42-1.24,1.17-2,1.92-3.08,1.6-.37,3.18-.75,4.79-1.09s2.64-.4,4.12-.67c3.62-.65,6.07-2.91,6.12,2.99.02,2-.49,4.01-.85,5.97-1.5,8.05-4.42,16.57-8,23.89l-.49-.75c.33-.45,1.81-4.15,1.27-4.19-2.4.44-4.78,1.07-7.04,2.02l-.75-.4c1.95-5.69,3.41-11.61,4.82-17.46l-7.04-2.08c.6-1.67.53-3.47,1.11-5.16Z"/>
  <path class="st13" d="M164.73,290.48c-3.19-9.4-5.76-19.15-6.26-29.12l19.71,9.22c.38,1.54.57,3.11.87,4.67.09.49.09.66-.48.48l-15.13-8.1c-.98-.3-.63,2.08-.18,2.39l15.88,7.71,2.18,11.64c-.35-.85-1.78-3.26-2.75-3.3-3.66,1.55-8.93,1.1-12.45,2.66-.74.33-1.31.9-1.39,1.75Z"/>
  <path class="st8" d="M303.71,266.15c.31-1.28,1.11-3.94,2.47-4.35.64-.19,1.4.02,2.05-.16,1.93-.54,3.66-1.36,5.8-1.02-.52.68.02,1.36,0,1.84,0,.12.01.25,0,.37l-.37.74c-.03.12.03.25,0,.37l-.37.74c-.12.38-.24.73-.37,1.11l-.37.74c-.04.11.04.26,0,.37l-.74,1.47c-.14.33-.2.71-.37,1.11l-1.11,2.21c-.55,1.41-1.15,2.71-1.84,4.06l-1.47,2.21c-3.56,7.16-9.01,13.67-14.75,19.17-.52.49-.71.28-.37-.37,3.77-6.52,7.7-16.02,9.95-23.22.13-.89.28-1.79.74-2.58.03-.11-.03-.25,0-.37l.37-1.11c.02-.12-.02-.25,0-.37l.74-2.58c.03-.12-.03-.25,0-.37Z"/>
  <path class="st22" d="M201.6,286.42c-.01-3.32-.52-7.15,4.06-6.27.14.14-.11,2.88-.02,3.54.07.53.38.83.39.88l.69,1.65c1.18,12.57,2.47,25.08,3.86,37.52l.61.64.8.2c.14,1.61.74,1.29,1.78-.94.38.08.74.15,1.11,0,1.31.16,1.72,2.53.37,2.95-1.17.32-2.5.34-3.69,0-1.85-.07-3.65-.59-5.53-.37l1.84-.54c-1.7-6.31-2.96-12.78-3.99-19.24s-2.25-13.72-2.27-20.03Z"/>
  <path class="st27" d="M293.76,288.63c-.13.36-.24.74-.37,1.11l-1.11,2.21c-3.35,8.52-6.51,11.78-14.04,16.74-.56.37-4.11,2.68-4.39,2.43,5.57-7.82,9.79-16.72,12.9-25.8.9-.79,7.49-2.54,8-2.32,1.63.71-.44,4.12-.99,5.64Z"/>
  <path class="st16" d="M222.61,281.26s.32-.35.39-.88c.09-.7-.19-3.33,0-3.52.12-.12,2.79-.4,3.3-.39-.3,4.78-.21,9.59-.37,14.38-.21,6.21-.51,12.42-1.11,18.61-.53,5.54-1.38,11.09-2.22,16.59l1.29.19c.59.49-.27.36-.55.37-.67.28-2.99.41-3.23-.15-.07-.15.32-2.94.65-3.17.12-12.78.39-25.6.74-38.39,0-1.31.39-2.53,1.11-3.63Z"/>
  <path class="st9" d="M259.1,285.69c.01.12,0,.25,0,.37l-1.11,4.06c-.02.12.02.25,0,.37l-.74,2.58c-2.14,10.43-7.54,20.31-11.79,29.96l-3.32,1c5.26-10.17,8.65-21.09,11.8-32.07l.37-1.47c.03-.11-.03-.26,0-.37l.37-1.11c.03-.11-.03-.26,0-.37.29-.94.91-3.63,1.37-4.07,1.59-1.5,2.81-1.06,3.05,1.12Z"/>
  <path class="st30" d="M261.32,286.42c1.02-.49,2.13-1.3,3.28-.69.11.47.05.95.04,1.43-.04,2.19-1.47,6.11-2.21,8.3-3.12,9.31-7.87,17.9-12.51,26.48l-2.98.97c-.33-.43,3.8-7.53,4.37-8.72,4.14-8.59,7.82-18.49,10.01-27.78Z"/>
  <path class="st18" d="M269.8,287.16c-3.48,12.09-8.59,22.76-15.46,33.29l-2.97.99c6.56-11.06,12.23-22.88,15.48-35.39,1.42-.46,3.13-.91,2.95,1.11Z"/>
  <path class="st3" d="M218.55,326.61c.9-2.22,1.26-4.78,1.07-7.69l.78-.79.33.17c-.15,1.67-.14,3.34.04,4.99-.08,1.09.05,2.22,0,3.32.86-.02,1.73.03,2.58,0-.38.61-1.4.37-2.02.38-2.58.03-5.17.03-7.75,0-.62,0-1.64.24-2.02-.38,1.21.05,2.48.04,3.69,0,.36-.79,1.4-1.13,1.73-.31-.67-4.78-.63-9.47.11-14.07-.22-4.23-.28-8.48-.17-12.73-1.01-4.06-1.02-8.57-.2-12.71l-.74-26.17c.16-.18,2.02.7,2.21.91.63.7.41,8.36.38,9.97-.33,17.64-.58,35.38-.39,53.07,0,.62-.24,1.64.38,2.02Z"/>
  <path class="st26" d="M273.85,299.69c-2.75,5.81-5.7,10.42-9.07,15.82-.36.58-1.05.84.22.77-.53.24-.67.65-1.47,0,2.79-3.51,6.46-10.26,8.48-14.38.55-.54,1.01-1.31,1.38-2.31l.46.1Z"/>
  <path class="st32" d="M269.8,271.31c.04-.84.41-2.77.38-3.1,0-.08-1.2-.91-1.31-.95-.69-.28-.47.26-.56.53-.31,1-.11,2.32-.73,3.15.11-1.16.08-2.36.38-3.5.1-.4-.26-.7.55-.56,2.46.44,2.17,2.6,1.29,4.43Z"/>
  <path class="st34" d="M145.56,299.33c.32.41,1.36.59,1.1,1.47-.88.23-1.04-.72-1.47-1.1l.37-.37Z"/>
  <path class="st0" d="M292.28,297.11c-.43.41-.75,1.29-1.47,1.47-.16-.81.75-1.23,1.1-1.84l.37.37Z"/>
  <path class="st32" d="M274.22,269.83c-1.32-.22-.9,2.69-1.18,3.8l-.29.25c.07-.64.22-4.26.37-4.43.67-.21.78.17,1.1.37Z"/>
  <path class="st32" d="M266.85,276.1c.17-1.51.07-3.47.74-4.79-.14,1.51.04,3.39-.74,4.79Z"/>
  <path class="st32" d="M263.9,272.78c.1-.8-.34-2.06.37-2.58-.09.81.33,2.06-.37,2.58Z"/>
  <path class="st32" d="M269.43,273.89c.09-.68-.31-1.8.37-2.21-.01.7.25,1.81-.37,2.21Z"/>
  <path class="st32" d="M272.38,276.1c.02-.59-.23-1.53.37-1.84-.1.78-.29,1.31-.37,1.84Z"/>
  <path class="st32" d="M263.53,274.99c.1-.66.31-1.46.37-1.84-.02.59.23,1.53-.37,1.84Z"/>
  <path class="st32" d="M269.06,276.1c.11-.6.31-1.45.37-1.84-.02.59.23,1.53-.37,1.84Z"/>
  <path class="st32" d="M257.26,293.06c.17-.83-.08-1.91.74-2.58-.15.85-.12,1.9-.74,2.58Z"/>
  <path class="st32" d="M302.97,269.1c.18-.84.1-1.9.74-2.58-.19.8.09,1.92-.74,2.58Z"/>
  <path class="st32" d="M301.87,273.52c0-.89.06-1.92.74-2.58-.25.91-.45,1.68-.74,2.58Z"/>
  <path class="st32" d="M258,290.11c.25-1.32.4-2.89,1.11-4.06-.01,1.28-.38,3.02-1.11,4.06Z"/>
  <path class="st32" d="M253.94,291.95c.14-.47.22-.97.37-1.47l-.37,1.47Z"/>
  <path class="st32" d="M302.61,270.57c.1-.42.36-1.05.37-1.11l-.37,1.11Z"/>
  <path class="st32" d="M254.31,290.11c.13-.44.27-.79.37-1.11l-.37,1.11Z"/>
  <path class="st35" d="M292.28,291.95c.3-.76.33-1.66,1.11-2.21-.28.79-.35,1.66-1.11,2.21Z"/>
  <path class="st32" d="M310.35,271.68c.3-.76.33-1.66,1.11-2.21-.31.72-.32,1.67-1.11,2.21Z"/>
  <path class="st32" d="M307.03,277.94c.39-.78.64-1.78,1.47-2.21-.4.78-.63,1.78-1.47,2.21Z"/>
  <path class="st32" d="M311.82,268.36l.74-1.47c-.26.66-.59,1.12-.74,1.47Z"/>
  <path class="st32" d="M312.56,266.52l.37-.74c-.13.37-.32.6-.37.74Z"/>
  <path class="st32" d="M313.3,264.67l.37-.74c-.13.5-.36.7-.37.74Z"/>
  <path class="st32" d="M313.66,263.57l.37-.74c-.07.63-.36.7-.37.74Z"/>
  <g>
    <path class="st24" d="M135.5,151.02c.38.2,2.39.78,2.76.74.94-.09,1.26-1.27,1.93-1.43.16-.04,2.77-.39,3.22-.44,1.27-.15,2.44.5,3.66.04.31.04,2.48,3.97,3.18,3.3-.69-.96-.03-1.74-.07-2.69-.02-.73-.89-1.09.02-2.56l-9.36-11.7-.18-.55c.08-.39,4.49-1.58,5.09-1.22l12.97,16.51c-.77-1.28.64-1.98.33-3.05s-3.74-4.29-4.36-5.99c-.75-2.03.2-2.33.36-4.23l2.79,1.82c1.07,1,3.58,5.66,4.46,5.89,1.43.37,1.24-1.16,1.46-1.44.49-.61,1.4-.74,1.86-1.23.23-.24.22-1.25.68-1.36.66-.16,2.63,1.64,3.12,2.21-1.08-3.61,1.75-3.24,2.77-5.89.85,1.55,2.28-.08,2.77.15.81.39,1.61,3.02,2.04,3.89.12.25.3,1.4.9.74.07-.07-.45-1.1-.35-1.98.1-.97,1.07-2.12,1.02-2.57-.05-.53-.87-1.1-.64-1.85.53-1.76,5.23-1.36,5.41-2.62.08-.58-1.96-4.72-1.37-5.33.05-.05,1.39-.31,1.47-.24.55.47-.08,1.37.89,1.34,3.11-.07.34-2.03,1.91-2.54,1.83-.6,5.23.97,7.27.73,1.22.4.57,4.83,2.34,3.88,2.02-1.08,3.67-.7,5.37-1.42.68-.29.85-1.31,1.19-1.4.63-.16,1.03.99,1.47,1.02.33.02.92-.67,1.46-.67.29,0,.25.9.8,1.1.86.3,1.93-.43,2.87-.33.73.07,1.52.92,2.21.73.64-.18.47-1.42.96-2.01.87-1.05,3.14-.55,2.59-2.88-.12-.5-1.4-.4-1.12-1.36,1.22-.49,5.2-.05,5.72-.74.24-.32.12-1.1.17-1.1h5.16l-.9,19.19c-.49.7-11.23.24-13.11.35-1.78-1.85,2.64-3.41,3.66-1.05l6.69.06c-.13-2.34-.03-3.57,1.96-4.77-1.99-1.52-2.42-5.53-.67-7.45l-.75-3.48c-1.84,1.19-3.07,1.07-3.71-.37h-.6c.18,3.01-.92,4.81-3.29,5.43-.39,2.1-1.95,2.92-4.68,2.43-4-.63-7.9-.5-11.7.4-3.15,2.62-5.46.3-5.73-3.22-1.27.25-2.34.04-3.54-.44-.6,1.34-1.49,2.23-2.67,2.66.54,2.74-.95,4.44-4.49,5.12.17,1.17-.2,2.24-1.09,3.2.7,6.44-4.72,6.76-6,.83-.5-.57-2.34.56-2.24,1.4.7,3.85-2.51,4.74-5.04,2.26-1.36,1.95-2.95,4.08-5.63,3.05-.36.54-.32,1.24.12,2.09-1.33,6.43-6.27,2.12-8.43-1.57,1.1,5.68-2.42,11.18-6.88,4.32-.88-1.37-7.84,1.14-7.92,1.56-.02.09.57,1.63.66,1.73,3.58,1.19,5.07,5.26,5.1,8.77,7.08-5.3,14.55-9.88,22.39-13.73l1.81.22c1.6-2.36,8.86-5.78,10.97-3.18-13.98,5.35-27.59,12.73-38.71,22.86-1.87.1-3.17-.53-3.88-1.89-1.64.71-2.98.29-4.25-.88-1.44-1.6-3.08-2.82-4.92-3.65-.47-1.02-1.12-1.04-1.95-.06-2.21,3.25-4.47,4.15-6.78,2.69-.37-.42-6.24-4.34-4.85-2.72l6.93,4.17c2.58,1.32,3.54,3.29,2.07,5.94,2.38,1.73,5,3.15,7.61,4.52-.06-2.11,2.63-3.72,3.76-1.86-11.09,12.16-19.03,27.37-22.49,43.5-.78-.4-5.31-1.29-5.51-1.49-.35-.35.47-2.45.36-2.57-.33-.35-4.39-.31-4.75-1.34-.3-.86.53-4.04,1.23-4.6.88-.72,4.69.99,4.99.78.08-.05.49-1.73.38-1.84l-16.96-4.06c-.15-.16.6-1.58.37-1.84-.25-.28-5.98-.96-6.15-2.01-.25-1.56,1.87-8.1,3.83-8.63s14.24,5.33,15.22,4.37c-.43-.59.08-2.81,0-2.93-.32-.47-9.55-2.77-10.71-3.95.64-2.86,1.74-9.62,4.85-10.64,1.68-.55,8.43,3.61,10.49,4.2.85-.71.94-1.91,1.65-2.72,2.24-2.61,3.06-1.07,5.5-.38.43.12,1.02-.24,1.59-.09.77.2,2.26,1.64,3.12,1.72.57.05.92-.73,1.5-.96.64-.25,1.38-.24,2.03-.48.27-.1.28-.73.48-.73.81-.02,2.98,2.01,3.48,1.49.38-.39-.16-1.08-.6-1.42-2.25-1.73-5.71-3.41-8.23-4.86-.28-.74.54-1.25.62-1.71.07-.39-.38-1.16-.27-1.23.3-.19,1.33.43,1.11-.55l-9.95-6.64c-1.51-.85,1.49-4.84,2.02-4.89,1.24-.11,6.47,4.97,7.67,4.67,1.51-.39.54-2.04.63-2.17,1.68,1.1,4.01-2.78,5.29-2.53,1.42.89,7.03,6.27,8.17,6.2,1.06-.06,1.25-1.34,3.13.38-.08-2.01,1.71-3.65,3.69-3.13-1.11-.96-.99-2.67-1.69-3.84-.8-1.37-2.88-2.77-3.91-4.57-.82-1.43-.9-2.88-1.4-3.94-.73-1.33-.6-1.51.74-.74Z"/>
    <path class="st24" d="M179,148.08c-1.06,0-1.76-.52-3.04-.29-.61.11-5.71,2.19-6.32,2.54-1.13.66-.86,1.69-.97,1.8-.08.09-1.59-.46-2.36-.37-.65.08-2.42,1.01-3.06,1.4-6.19,3.77-14.71,8.54-20,13.17-.65.57-.27,2.06-1.99,1.66-.21-.05-1.19-1.68-.97-1.86,5.02,1.27,2.12-6.03.68-7.87-.78-1-2.46-1.39-2.8-1.81-.24-.3-.87-2.28-1.2-2.85l6.8-2.16c.74.21,1.73.2,2.4.52,1.08.52,1.97,2.62,2.6,2.93.8.4,2.34.34,2.77-.55.07-.15.8-3.02.81-3.18.06-.61-.28-3.54-.47-4.18-.31-1.02-2.37-2.31-2.99-3.07-1.28-1.57-2.68-3.87-3.79-5.52-.16-.24-2.37-1.62-.93-2.11.89-.3.76.19,1.03.45,4.11,4.05,7.1,10.65,11.12,14.66,1.17,1.17,2.15,1.72,3.6.38.88-.81.96-2.89-.46-2.97v-.36c1.1,0,1.14-1.03.73-1.85.74-.11.97.62,1.68.74,3.03.52,3.71-3.1,4.83-3.28.83-.14,2.05,2.32,3.94,1.09,1.57-1.03-1.01-3.23,2.09-4.63s1.9,2.82,3.68,3.68c3.6,1.74,2.67-2.53,2.96-4.05.15-.8.87-1.02,1.03-1.55.18-.61-.09-1.52.13-1.89.61-1.05,6.42-.55,4-5.59,2.3.96,2.76-2.34,3.54-2.53.41-.1,1.62.5,2.28.58.6.08,1.49-.36,2.07.06.62.45.05,3.72,2.28,4.1,1.72.29,1.71-.68,2.66-1.01,2.93-1.02,5.98-.93,8.89-.68,1.29.11,5.9.6,6.5-.15.32-.4.24-1.26.65-1.75.5-.61,2.31-.83,2.67-1.57.71-1.45-.68-4.78,2.13-4.07.45.11.31,1.1,1.16,1.12s2.04-1.39,3.15-1.12c-.65,1.2.67,4.21.64,4.61-.02.3-.84.67-1,1.48-.19.97-.11,3.57.4,4.39.42.67,1.55.41,1.08,2.18-.14.54-1.26.2-1.62,1.07-.4.97-.11,3.48-.24,3.6-.28.28-7.39.13-7.85,0-.39-.1-.35-.75-.62-.92-1-.66-2.55-.04-2.59,1.28-5.45.3-11.31,1.25-16.67,2.32-3.6.72-12.41,3.95-15.04,3.95Z"/>
    <path class="st24" d="M134.03,177.2c-1-.01-2.21-.25-2.75.75-.34.64-.04,1.82-1.11,1.84-.48,0-8.03-4.43-8.27-4.84-.37-.63,1.5-2.23.35-4.13-.72-1.19-8.05-4.9-9.57-6.2-.19-.27.44-1.49.7-1.64.78-.45,5.55,4.41,7.56,4.3,1.55-.08,3.12-3.38,5.09-4.2,1.18-.49,1.18.55,1.64.83.52.32,1.24.42,1.67.74,1.3.95,3.21,3.2,4.71,3.88,1.07.48,1.88-.37,2.68-.22.3.06.5.95.98,1.31,1.06.79,2.66.02,2.58,1.29-1.83,1.66-4.6,4.44-6.27,6.27Z"/>
    <path class="st28" d="M135.5,151.02c-.78-.09-.83-.05-.74.74-.26-.55-2.65-2.49-2.21-2.95,1.2.3,2.01,1.72,2.95,2.21Z"/>
    <path class="st24" d="M110.71,185.21c.43-.41.87-2.06,1.55-2.68,1.36-1.23,1.87-.05,3.16.18.79.14,1.64-.11,2.48.1s1.31,1.25,2.66,1.41c2.36.27,2.5-1.22,4.16-1.43.48-.06,1.88.07,1.95.53.19,1.13-5.62,8.11-6.38,10.2-.32.87-.14,2-.36,2.41-.09.16-1.43.79-2.04,1.83-1.18,2.03-.31,3.99-.46,4.14-.05.05-.83,0-1.31.35-.72.53-3.61,8.84-4.08,10.34-.3.96-.35,1.57-.79,2.87-.3.9-.24,3.02-1.36,3.04-1.95.03-1.76-2.54-2.95-3.34-.76-.51-2.9-.55-3.14-1.29-.63-1.99,2.56-.87,3.49-.87,3.43,0,3.5-4.17-.18-5.39-3.42-1.13-10.23-1.74-13.03-3.19-.7-.36-.45-.98-.88-1.43-1.27-1.35-5.54-1.36-5.66-2.74-.07-.86,1.65-5.14,2.4-5.26l12.58,4.3c3.61,1.04,5.13-3.65,2.93-5.88-1.46-1.48-8.54-2.63-9.26-3.66.21-1.66,1.14-7.14,2.43-7.95,1.63-1.02,9.81,5.6,12.07,3.42Z"/>
    <path class="st24" d="M156.15,141.07c.61-.55,2.96,3.07,3.25,3.57.23.41.73,1.12.63,1.58l-3.87-5.15Z"/>
  </g>
  <path class="st15" d="M208.6,294.16c.04-1.31-.38-5.16,2.05-3.34,2.09,1.57,1,3.88,1.25,6.14.06.51.38.84.39.89.44.43.73.95.78,1.57.63,7.64,1.11,15.78,1.2,23.44,0,.26-.22.53-.51.8-.02.86.02,1.73,0,2.58-.46-.07-2.11.11-2.21,0-.06-.07-.24-1.32-.37-1.84l-.55-.26c-1.45-8.02-1.93-16.24-2.39-24.37l.72-.81-.37-4.06c-.71-.21-.71-.53,0-.74Z"/>
  <path class="st23" d="M220.77,290.11c.28.66.5,1.33.5,1.99.04,8.66-.06,17.44-.87,26.02-.08,1.75-.23,3.86-.35,5.73-.08,1.23-.11,3.29-1.49,2.75v-52.71c1-.16,2.02.7,2.2,1.67.63,3.36-.01,10.69,0,14.55Z"/>
  <path class="st29" d="M206.02,284.58l-1.48-29.67c.08-.61,1.69.57,1.85.81l2.21,38.45c0,.24,0,.49,0,.74l.37,4.06c.11,6.64.72,19.22,2.21,25.44l-.73,1.84c-.29-2.41-.76-4.83-1.06-7.24-1.46-11.42-2.01-23.06-3.36-34.42Z"/>
  <path class="st11" d="M213.39,280.52c.84,5.63,1.17,11.34,1.01,17.14-.71,2.32-.71,5.01-.27,7.19l.72,1.22c-.05,5.43-.05,10.89.58,16.29l-.57,1.28-.55,2.58-.56-2.58c.23-7.98-.76-17.79-1.47-25.81l-1.84-40.55c.07-.09,1.47.8,1.69,1.08.54.67.84,4.82.91,6.1.23,4.57-.07,9.42-.02,14.03,0,.62-.24,1.64.38,2.02Z"/>
  <path class="st1" d="M213.39,280.52c.01-2.21-.01-4.43,0-6.64.54.08,1.58-.25,1.89.21.1.14,1.04,2.97,1.08,3.27.39,2.86.2,6.55.35,9.42.45,8.46.42,16.95.37,25.44-.89.56-1.03-.37-1.13-1.19l.1-12.05-1.22.21.03,5.19-.73.47c-.61-.38-.37-1.4-.38-2.02-.09-7.46-.41-14.84-.36-22.31Z"/>
  <path class="st3" d="M220.77,290.11v-26.91s2.22,1.36,2.22,1.36l-.38,16.7c-1.55,13.44-.9,28.32-1.84,42.03-.83-1.41-.17-3.53-.37-5.16.42-9.29.42-18.71.37-28.02Z"/>
  <path class="st2" d="M273.85,299.69c-.94.65-1.71,4.37-1.84,2.21.36-.74.74-1.76,1.11-2.58l1.11-2.21c2.94-7.05,5.05-14.67,6.84-22.1.15-.62.2-1.23.17-1.86.77-.1,1.4.02,1.46.89-1.9,8.89-4.95,17.46-8.83,25.66Z"/>
  <path class="st26" d="M273.11,299.33l1.11-2.21c-.38.91-.79,1.51-1.11,2.21Z"/>
  <path class="st10" d="M301.5,244.4l-10.86-12.17-.19-2.21c3.15,3.78,7.35,7.82,10.1,11.83.56.82,1.15,1.43.95,2.55Z"/>
  <path class="st4" d="M300.02,249.19l-8.86-9.01-.35-2.05c2.39,2.32,5.26,5.02,7.36,7.57.83,1.01,2.06,2.15,1.85,3.49Z"/>
  <path class="st20" d="M295.97,252.14c-2.04-1.87-5.98-2.99-5.15-6.27,1.69,1.81,5.04,3.7,5.15,6.27Z"/>
  <path class="st21" d="M291.91,255.09c-1.4-.07-1.97-1.76-1.84-2.95,1.09-.2,2.24,2.48,1.84,2.95Z"/>
  <path class="st5" d="M174.68,280.89c-.49.38-10.79-5.19-10.99-5.78-.17-.48-.04-1.08-.06-1.59.49-.52,9.25,4.93,10.67,5.36.83.17.72,1.75.38,2.01Z"/>
  <path class="st3" d="M172.78,283.53l-.12,2.15c-1-1.01-7.49-3.86-7.85-4.5-.28-.49.01-1.52-.08-2.14.59-.63,6.78,4.28,8.05,4.48Z"/>
  <path class="st15" d="M214.13,304.86c.01-.96-.16-5.99.04-6.23.09-.11,2.42-.53,2.54-.41.15,4.24-.18,8.52-.03,12.76.02.66.39,1.18.4,1.25.17,4.79.4,9.59.37,14.38-.73.02-1.48-.03-2.21,0,.32-1.11-.25-2.15-.37-2.95-.85-5.65-.8-13.03-.74-18.8Z"/>
  <path class="st3" d="M220.39,326.23c-.13.25-.63-.22-.36-.73.13-.25.63.22.36.73Z"/>
  <path class="st33" d="M208.97,298.96c-.68-.97-.36-2.78-.37-4.06.69.98.35,2.77.37,4.06Z"/>
  <g>
    <path d="M64.41,93.22l3.62-1.65,2.42,2.85-4.55,2.08-1.5-3.28ZM66.6,92.22l4.3-1.96,22.47,49.19-2.38-.76,12.21-5.58-1.39,2.75-8.28-18.12,4.21-1.92,8.98,19.65-16.85,7.7-23.27-50.94ZM69.72,90.79l3.79-1.73,1.5,3.27-4.72,2.16-.57-3.7ZM86.18,140.88l3.62-1.65,2.42,2.85-4.55,2.08-1.5-3.27Z"/>
    <path d="M110.97,132.52c-2.01-.84-3.48-2.62-4.4-5.35l-9.15-27.06c-.91-2.68-.81-4.94.3-6.77,1.1-1.84,2.92-3.18,5.43-4.03l.26-.09c2.57-.87,4.84-.92,6.79-.14,1.96.77,3.4,2.53,4.32,5.25l4.1,12.12-14.12,4.78-1.18-3.49,12.11-4.09-1.63,3-3.82-11.29c-.46-1.36-1.19-2.26-2.18-2.68-.99-.42-2.1-.43-3.33-.01l-.09.03c-1.23.42-2.11,1.09-2.64,2.03-.53.94-.56,2.09-.1,3.46l9.46,27.96c.48,1.42,1.24,2.36,2.27,2.82,1.04.47,2.17.49,3.4.08l.18-.06c1.23-.42,2.11-1.12,2.66-2.12.54-1,.57-2.21.09-3.62l-3.64-10.76,4.39-1.48,3.49,10.31c.92,2.73.82,5.04-.29,6.94-1.12,1.9-2.94,3.27-5.45,4.12l-.35.12c-2.57.87-4.87.89-6.88.05Z"/>
    <path d="M132.26,125.82c-1.94-1.04-3.24-2.96-3.87-5.76l-6.28-27.62c-.64-2.81-.31-5.1,1-6.87,1.31-1.77,3.25-2.96,5.84-3.54l.36-.08c2.59-.59,4.85-.37,6.8.67,1.94,1.03,3.24,2.96,3.88,5.77l6.28,27.61c.64,2.81.31,5.1-1,6.87-1.31,1.77-3.25,2.96-5.84,3.54l-.36.08c-2.59.59-4.86.37-6.8-.67ZM141.39,121.08c.64-.94.8-2.14.46-3.59l-6.49-28.55c-.33-1.46-.99-2.47-1.97-3.04-.98-.57-2.11-.71-3.37-.42l-.18.04c-1.26.29-2.22.9-2.86,1.84-.64.94-.8,2.14-.46,3.59l6.49,28.55c.33,1.46.99,2.47,1.97,3.04.98.57,2.11.71,3.37.42l.18-.04c1.26-.29,2.22-.9,2.86-1.84Z"/>
    <path d="M144.2,67.39l3.59-.43,1.44,3.45-4.6.55-.43-3.57ZM146.86,67.07l4.69-.56,6.68,55.6-4.69.56-6.68-55.6ZM150.27,66.67l4.96-.6.43,3.57-5.98.72.58-3.7ZM150.44,119.42l3.59-.43,1.44,3.45-4.6.55-.43-3.57ZM153.24,96.85l9.34-29.4.74-2.35,4.32-.52-.75,2.27-8.49,26.4-.82.18-3.64,9.3-.71-5.88ZM156.51,118.69l4.96-.6.43,3.57-5.98.72.58-3.7ZM169.85,119.51l-13.52-27.95,1.82-5.05,16.1,32.31.62,1.29-4.51.54-.51-1.15ZM158.54,65.67l6.8-.82,1.44,3.45-7.81.94-.43-3.57ZM164.79,117.7l6.53-.78,1.44,3.45-7.54.9-.43-3.58ZM166.81,64.68l1.66-.2.43,3.57-2.67.32.58-3.7ZM173.15,116.69l2.67-.32.43,3.57-3.68.44.58-3.7Z"/>
    <path d="M174.68,76.26l4.07-.2,1.19,3.55-5.09.25-.17-3.6ZM176.6,64.15l4.9-.24.39,7.99-4.9.24-.39-7.99ZM176.64,116.61l4.07-.2,1.19,3.55-5.09.25-.18-3.6ZM177.46,76.12l4.62-.23,2.14,43.95-4.62.23-2.14-43.95ZM182.75,116.31l4.07-.2.18,3.59-5.09.25.84-3.64Z"/>
    <path d="M189.02,116.01h3.61s1.01,3.61,1.01,3.61h-4.63s0-3.61,0-3.61ZM189.12,75.61h3.61s1.01,3.61,1.01,3.61h-4.63s0-3.61,0-3.61ZM191.43,75.62h3.61s.73,5.29.73,5.29l-1.2-.64c.25-1.65,1.01-2.97,2.28-3.95,1.27-.98,2.86-1.47,4.77-1.47h.28c2.22,0,3.96.64,5.23,1.89,1.26,1.26,1.89,3.06,1.89,5.4l-.02,9.52h-4.63s.02-9.37.02-9.37c0-1.33-.3-2.31-.92-2.92-.62-.61-1.48-.92-2.59-.93h-.19c-1.42,0-2.55.5-3.38,1.51-.84,1.01-1.26,2.45-1.26,4.32l-.08,35.36h-4.63s.1-44.01.1-44.01ZM194.67,116.03h4.17s0,3.61,0,3.61h-5.19s1.03-3.61,1.03-3.61Z"/>
    <path d="M215.24,118.62c-1.57-1.51-2.28-3.71-2.15-6.59l1.4-29.73c.11-2.29.84-4.03,2.19-5.22,1.35-1.19,3.2-1.73,5.55-1.62h.28c1.91.1,3.51.67,4.79,1.72,1.28,1.05,2,2.38,2.18,3.99l-1.23.5.98-5.08,3.61.17-.75,15.98-4.62-.22.35-7.43c.09-1.86-.29-3.31-1.14-4.34-.85-1.03-1.98-1.58-3.4-1.64h-.18c-1.17-.06-2.11.2-2.82.78-.71.58-1.09,1.51-1.15,2.79l-1.41,30.05c-.07,1.49.29,2.64,1.09,3.46.8.81,1.84,1.25,3.14,1.31h.18c1.3.07,2.38-.27,3.25-1,.87-.73,1.34-1.85,1.41-3.34l.53-11.35,4.62.22-.51,10.87c-.13,2.88-1.07,5-2.8,6.36s-3.93,1.98-6.58,1.85l-.37-.02c-2.71-.13-4.85-.95-6.42-2.46Z"/>
    <path d="M233.96,117.25l3.59.34.67,3.68-4.61-.44.34-3.58ZM241.27,65.31l4.61.44-1.59,16.56-1.29-.12c.4-1.62,1.3-2.86,2.68-3.72,1.38-.86,3.06-1.19,5.03-1l.28.03c2.4.23,4.18,1.03,5.35,2.4,1.17,1.37,1.64,3.23,1.42,5.56l-3.58,37.35-4.61-.44,3.57-37.19c.13-1.33-.12-2.33-.74-3-.62-.67-1.54-1.07-2.77-1.19l-.18-.02c-1.47-.14-2.72.25-3.74,1.17-1.02.92-1.62,2.31-1.79,4.17l-3.38,35.2-4.61-.44,5.35-55.74ZM239.59,117.79l4.15.4-.34,3.58-5.16-.49,1.36-3.49ZM238.97,65.09l3.6.35.67,3.68-4.61-.44.34-3.58ZM247.05,118.51l4.15.4.67,3.68-5.16-.49.34-3.58ZM253.23,119.1l3.59.34-.34,3.58-4.61-.44,1.36-3.49Z"/>
    <path d="M261.69,122.45c-1.39-1.68-1.86-3.94-1.41-6.78l4.48-28.21c.44-2.79,1.58-4.74,3.42-5.86,1.83-1.11,4.06-1.46,6.68-1.05l.27.04c2.68.43,4.71,1.44,6.08,3.03,1.37,1.59,1.83,3.81,1.38,6.66l-2.01,12.64-14.72-2.34.58-3.63,12.62,2-2.83,1.9,1.87-11.77c.23-1.42,0-2.55-.68-3.39-.68-.84-1.66-1.36-2.94-1.56h-.09c-1.28-.22-2.38-.03-3.28.56-.91.59-1.47,1.59-1.7,3.01l-4.63,29.15c-.23,1.47,0,2.66.7,3.55.7.89,1.69,1.44,2.97,1.65l.18.03c1.28.2,2.39-.01,3.34-.64.94-.63,1.53-1.69,1.77-3.16l1.78-11.22,4.57.73-1.71,10.75c-.45,2.84-1.61,4.85-3.49,6.01-1.87,1.16-4.12,1.53-6.74,1.12l-.37-.06c-2.68-.43-4.72-1.48-6.11-3.16Z"/>
    <path d="M280.7,123.39l3.98.86.23,3.73-4.98-1.08.76-3.52ZM291.99,84.5l4.53.98-9.34,43-4.53-.98,9.34-43ZM286.67,124.69l3.98.86-.76,3.52-4.98-1.08,1.76-3.3ZM289.27,83.91l3.98.86.23,3.73-4.98-1.08.76-3.52ZM294.26,72.72l4.8,1.04-1.7,7.82-4.8-1.04,1.7-7.82Z"/>
    <path d="M297.82,130.41c-1.03-1.32-1.44-2.81-1.22-4.47l.58,1-1.6,3.54-3.29-.95,5.17-17.99,4.45,1.28-2.79,9.69c-.52,1.79-.47,3.31.14,4.54.61,1.23,1.63,2.05,3.05,2.46l.18.05c1.19.34,2.19.31,3.01-.09.82-.4,1.42-1.24,1.79-2.52l1.39-4.84c.52-1.79.5-3.52-.05-5.18-.55-1.66-1.52-3.77-2.9-6.33l-.07-.1c-1.7-3.04-2.87-5.67-3.52-7.88-.65-2.21-.62-4.55.09-7.01l.62-2.15c.63-2.2,1.73-3.73,3.29-4.59,1.56-.85,3.44-.97,5.64-.34l.27.08c1.84.53,3.26,1.45,4.26,2.77,1,1.32,1.37,2.77,1.11,4.36l-1.18.41,2.17-4.87,3.38.97-4.42,15.38-4.45-1.28,2.03-7.07c.5-1.74.46-3.24-.11-4.48-.57-1.25-1.54-2.07-2.91-2.46l-.18-.05c-1.13-.32-2.07-.28-2.83.14-.76.42-1.33,1.27-1.7,2.55l-.57,2c-.52,1.8-.53,3.51-.04,5.15.49,1.64,1.47,3.83,2.92,6.58,1.62,3.08,2.78,5.75,3.47,8.03.69,2.28.71,4.57.05,6.88l-1.37,4.77c-.65,2.26-1.77,3.81-3.36,4.65-1.59.85-3.55.94-5.86.27l-.27-.08c-1.9-.55-3.37-1.48-4.4-2.8Z"/>
    <path d="M315.89,135.31c-.98-1.94-.94-4.25.13-6.93l10.62-26.51c1.05-2.62,2.59-4.28,4.63-4.95,2.03-.68,4.28-.53,6.75.46l.26.1c2.52,1.01,4.27,2.44,5.26,4.3.98,1.86.94,4.13-.13,6.8l-4.76,11.88-13.84-5.54,1.37-3.42,11.86,4.75-3.18,1.22,4.43-11.07c.54-1.34.56-2.49.09-3.46-.48-.97-1.32-1.69-2.52-2.17l-.09-.03c-1.2-.48-2.31-.54-3.32-.17-1.01.37-1.79,1.22-2.32,2.56l-10.97,27.4c-.55,1.39-.59,2.59-.1,3.62.49,1.03,1.33,1.78,2.53,2.27l.17.07c1.2.48,2.34.52,3.4.11,1.06-.41,1.87-1.31,2.42-2.69l4.22-10.55,4.3,1.72-4.04,10.1c-1.07,2.67-2.65,4.37-4.73,5.09-2.08.72-4.36.58-6.82-.41l-.34-.14c-2.52-1.01-4.28-2.49-5.26-4.43Z"/>
    <path d="M333.72,140.04l3.17,1.74-.84,3.65-4.06-2.23,1.73-3.16ZM355.2,105.74l3.17,1.74-1.89,4.98-.75-1.14c1.01-1.33,2.35-2.1,4.02-2.31,1.66-.21,3.36.16,5.1,1.11l.24.13c2.11,1.16,3.43,2.6,3.96,4.32.53,1.72.23,3.61-.89,5.67l-18.06,32.89-4.06-2.23,17.98-32.75c.64-1.17.81-2.19.51-3.05-.3-.86-.99-1.59-2.07-2.19l-.16-.09c-1.3-.71-2.6-.85-3.9-.41-1.3.44-2.4,1.48-3.3,3.12l-17.02,30.99-4.06-2.23,21.18-38.57ZM338.67,142.76l3.65,2.01-1.73,3.16-4.54-2.5,2.62-2.66ZM345.25,146.37l3.65,2.01-.84,3.65-4.54-2.5,1.73-3.16ZM350.68,149.35l3.17,1.74-1.73,3.16-4.06-2.23,2.63-2.66ZM353.17,104.63l3.17,1.74-.84,3.65-4.06-2.23,1.73-3.15Z"/>
  </g>
  <path class="st24" d="M114.79,266.84c-1.25.4-6.56-.61-7.39-1.55-1.23-1.38-2.06-6.99-2.45-7.23-.62-.37-2.48.58-3.51.56-.7-.01-.57-.72-.83-.72-.65-.02-1.45.67-2.46.61-.39-.03-2.22-.87-2.55-1.15-.43-.37-3.26-4.04-3.34-4.45-.28-1.48,2.03-4.19,1.71-5.87l-29.56,2.61c-.51-.1-.9-1.2-1.12-1.3-.87-.39-1.86.72-2.54-1.24-.41-1.17.24-2.38-1.42-2.77l-16.01,1.25-.61-.69c1.92-.84,16.54-1.17,17.21-1.91.16-.18-.02-3.04.24-3.71s1.69-1.03,1.68-2.39c12.2-1.77,24.56-2.36,36.83-3.6.18-1.2-.72-.43-1.07-.72-.23-.19-.24-.86-.56-1.17-.64-.63-1.72-1.2-2.18-1.87-1.55-2.26-.81-5.1,1.21-6.75.44-.36,3.38-2.11,3.9-2.2,3.53-.62,7.68.44,11.29.14.25,3.36-1.91,13.74-.72,19.64"/>
</svg>